<?xml version="1.0" encoding="UTF-8"?>
<svg width="283px" height="74px" viewBox="0 0 283 74" version="1.1" xmlns="http://www.w3.org/2000/svg" xmlns:xlink="http://www.w3.org/1999/xlink">
    <!-- Generator: Sketch 59.1 (86144) - https://sketch.com -->
    <title>noko</title>
    <desc>Created with Sketch.</desc>
    <g id="noko" stroke="none" stroke-width="1" fill="none" fill-rule="evenodd">
        <g id="noko_logo" fill="#CF1C5A" fill-rule="nonzero">
            <polygon id="Path" points="128.819126 38.2745902 109.527186 7.92554645 94.9905738 7.92554645 93.8307377 66.2653005 108.328689 66.2653005 108.715301 38.0812842 129.708333 66.2653005 144.786202 66.2653005 144.786202 7.92554645 129.978962 7.92554645"></polygon>
            <path d="M171.153142,21.8435792 C157.660383,21.8435792 148.072404,31.8954918 148.072404,44.3057377 C148.072404,56.6773224 157.660383,66.6905738 171.153142,66.6905738 C184.723224,66.6905738 194.311202,56.7159836 194.311202,44.3057377 C194.311202,31.8954918 184.413934,21.8435792 171.153142,21.8435792 Z M178.653415,50.4915301 C175.212568,50.4915301 172.390301,47.7465847 172.390301,44.2284153 C172.390301,40.7489071 175.212568,37.9653005 178.653415,37.9653005 C182.094262,37.9653005 184.91653,40.7102459 184.91653,44.2284153 C184.877869,47.7079235 182.055601,50.4915301 178.653415,50.4915301 Z" id="Shape"></path>
            <polygon id="Path" points="238.384973 22.7327869 222.572541 22.7327869 210.123634 36.2642077 210.123634 2.89959016 196.785519 2.89959016 196.785519 65.8786885 210.123634 65.8786885 210.123634 56.3680328 215.536202 50.3368852 225.472131 65.8786885 241.439208 65.8786885 225.12418 41.3288251"></polygon>
            <path d="M259.687295,21.8435792 C246.194536,21.8435792 236.606557,31.8954918 236.606557,44.3057377 C236.606557,56.6773224 246.194536,66.6905738 259.687295,66.6905738 C273.257377,66.6905738 282.845355,56.7159836 282.845355,44.3057377 C282.845355,31.8954918 272.948087,21.8435792 259.687295,21.8435792 Z M268.54071,50.4915301 C265.099863,50.4915301 262.277596,47.7465847 262.277596,44.2284153 C262.277596,40.7489071 265.099863,37.9653005 268.54071,37.9653005 C271.981557,37.9653005 274.803825,40.7102459 274.803825,44.2284153 C274.765164,47.7079235 271.942896,50.4915301 268.54071,50.4915301 Z" id="Shape"></path>
            <path d="M45.0789617,11.3277322 C43.8804645,6.06980874 39.8210383,2.01038251 34.5631148,0.773224044 C23.1580601,-1.89439891 13.2607923,9.08538251 17.9387978,20.6837432 C19.2532787,23.9699454 21.9209016,26.6375683 25.2071038,27.9520492 C36.7668033,32.6300546 47.7465847,22.7327869 45.0789617,11.3277322 Z" id="Path"></path>
            <path d="M62.4378415,24.4338798 C52.7338798,24.4338798 44.8856557,32.2821038 44.8856557,41.9860656 C44.8856557,51.6900273 52.7338798,59.5382514 62.4378415,59.5382514 C72.1418033,59.5382514 79.9900273,51.6900273 79.9900273,41.9860656 C79.9900273,32.2821038 72.1418033,24.4338798 62.4378415,24.4338798 Z" id="Path"></path>
            <path d="M20.0265027,33.2872951 C8.96939891,33.2872951 0,42.256694 0,53.3137978 C0,64.3709016 8.96939891,73.3403005 20.0265027,73.3403005 C31.0836066,73.3403005 40.0530055,64.3709016 40.0530055,53.3137978 C40.0530055,42.256694 31.0836066,33.2872951 20.0265027,33.2872951 Z" id="Path"></path>
        </g>
    </g>
</svg>