<?xml version="1.0" encoding="utf-8"?>
<!-- Generator: Adobe Illustrator 16.2.1, SVG Export Plug-In . SVG Version: 6.00 Build 0)  -->
<!DOCTYPE svg PUBLIC "-//W3C//DTD SVG 1.1//EN" "http://www.w3.org/Graphics/SVG/1.1/DTD/svg11.dtd">
<svg version="1.1" id="Layer_1" xmlns="http://www.w3.org/2000/svg" xmlns:xlink="http://www.w3.org/1999/xlink" x="0px" y="0px"
	 width="325.802px" height="74.023px" viewBox="0 0 325.802 74.023" enable-background="new 0 0 325.802 74.023"
	 xml:space="preserve">
<g>
	<circle fill="#AED141" cx="42.826" cy="14.284" r="14.285"/>
	<circle fill="#89B640" cx="76.661" cy="41.333" r="19.846"/>
	<circle fill="#8FD5E2" cx="19.897" cy="54.125" r="19.897"/>
	<path fill="#414042" d="M123.523,6.197h27.542v7.493h-18.833v13.568h15.864v7.494h-15.864v19.373h-8.708V6.197z"/>
	<path fill="#414042" d="M153.291,19.697h8.235v5.941c0,1.282-0.135,2.43-0.135,2.43h0.135c1.553-4.928,5.67-8.843,10.936-8.843
		c0.811,0,1.553,0.135,1.553,0.135v8.438c0,0-0.877-0.135-2.025-0.135c-3.645,0-7.763,2.092-9.383,7.223
		c-0.54,1.688-0.743,3.578-0.743,5.604v13.635h-8.573V19.697z"/>
	<path fill="#414042" d="M192.17,18.889c9.924,0,15.256,7.223,15.256,16.336c0,1.012-0.202,3.307-0.202,3.307h-23.762
		c0.54,6.008,5.198,9.113,10.328,9.113c5.536,0,9.923-3.779,9.923-3.779l3.309,6.143c0,0-5.266,4.928-13.839,4.928
		c-11.408,0-18.496-8.236-18.496-18.023C174.687,26.313,181.91,18.889,192.17,18.889z M198.786,32.658
		c-0.135-4.657-3.037-7.154-6.817-7.154c-4.388,0-7.426,2.699-8.235,7.154H198.786z"/>
	<path fill="#414042" d="M228.712,18.889c8.978,0,13.23,5.129,13.23,5.129l-3.78,5.873c0,0-3.577-3.713-8.978-3.713
		c-6.346,0-10.464,4.793-10.464,10.666c0,5.807,4.186,10.801,10.733,10.801c5.806,0,10.126-4.387,10.126-4.387l3.308,6.074
		c0,0-4.928,5.604-14.176,5.604c-11.409,0-18.699-8.033-18.699-18.023C210.013,27.123,217.303,18.889,228.712,18.889z"/>
	<path fill="#414042" d="M245.899,6.197h8.573V31.85h4.253l8.303-12.152h9.518L265.677,35.09v0.135l12.219,18.9h-9.855
		l-9.113-15.053h-4.455v15.053h-8.573V6.197z"/>
	<path fill="#414042" d="M278.783,6.197h8.506v35.913c0,3.781,1.282,4.726,3.51,4.726c0.675,0,1.282-0.067,1.282-0.067v7.492
		c0,0-1.282,0.203-2.699,0.203c-4.726,0-10.599-1.215-10.599-11.07V6.197z"/>
	<path fill="#414042" d="M310.546,18.889c9.923,0,15.256,7.223,15.256,16.336c0,1.012-0.202,3.307-0.202,3.307h-23.762
		c0.539,6.008,5.197,9.113,10.328,9.113c5.535,0,9.923-3.779,9.923-3.779l3.308,6.143c0,0-5.266,4.928-13.838,4.928
		c-11.409,0-18.497-8.236-18.497-18.023C293.062,26.313,300.286,18.889,310.546,18.889z M317.162,32.658
		c-0.135-4.657-3.038-7.154-6.818-7.154c-4.388,0-7.425,2.699-8.235,7.154H317.162z"/>
</g>
</svg>
