<?xml version="1.0" encoding="utf-8"?>
<!-- Generator: Adobe Illustrator 23.0.2, SVG Export Plug-In . SVG Version: 6.00 Build 0)  -->
<svg version="1.1" id="Layer_1" xmlns="http://www.w3.org/2000/svg" xmlns:xlink="http://www.w3.org/1999/xlink" x="0px" y="0px"
	 viewBox="0 0 325.8 74" style="enable-background:new 0 0 325.8 74;" xml:space="preserve">
<style type="text/css">
	.st0{fill:#414042;}
	.st1{fill:#AED141;}
	.st2{fill:#89B640;}
	.st3{fill:#8FD5E2;}
</style>
<path class="st0" d="M124,5.9h8.8l18.3,27.9c1.8,2.8,4,7.5,4,7.5h0.1c0,0-0.5-4.6-0.5-7.5V5.9h8.7v48.3h-8.7l-18.3-27.8
	c-1.8-2.8-4-7.5-4-7.5h-0.1c0,0,0.5,4.6,0.5,7.5v27.8H124V5.9z"/>
<path class="st0" d="M187.5,18.7c10.6,0,19.1,7.5,19.1,18.2c0,10.7-8.5,18.2-19,18.2c-10.6,0-19.1-7.5-19.1-18.2
	C168.5,26.2,177,18.7,187.5,18.7z M187.6,47.7c5.6,0,10.3-4.4,10.3-10.8c0-6.4-4.7-10.8-10.3-10.8c-5.6,0-10.3,4.4-10.3,10.8
	C177.3,43.3,182,47.7,187.6,47.7z"/>
<path class="st0" d="M212.4,5.9h8.6v25.8h4.3l8.4-12.2h9.6L232.3,35v0.1l12.3,19h-9.9L225.5,39H221v15.2h-8.6V5.9z"/>
<path class="st0" d="M263.7,18.7c10.6,0,19.1,7.5,19.1,18.2c0,10.7-8.5,18.2-19,18.2c-10.6,0-19.1-7.5-19.1-18.2
	C244.7,26.2,253.2,18.7,263.7,18.7z M263.8,47.7c5.6,0,10.3-4.4,10.3-10.8c0-6.4-4.7-10.8-10.3-10.8c-5.6,0-10.3,4.4-10.3,10.8
	C253.4,43.3,258.1,47.7,263.8,47.7z"/>
<path class="st1" d="M57.1,14.3c0,7.9-6.4,14.3-14.3,14.3c-7.9,0-14.3-6.4-14.3-14.3C28.5,6.4,34.9,0,42.8,0
	C50.7,0,57.1,6.4,57.1,14.3z"/>
<path class="st2" d="M96.5,41.3c0,11-8.9,19.8-19.8,19.8c-11,0-19.8-8.9-19.8-19.8c0-11,8.9-19.8,19.8-19.8
	C87.6,21.5,96.5,30.4,96.5,41.3z"/>
<path class="st3" d="M39.8,54.1c0,11-8.9,19.9-19.9,19.9C8.9,74,0,65.1,0,54.1c0-11,8.9-19.9,19.9-19.9
	C30.9,34.2,39.8,43.1,39.8,54.1z"/>
</svg>
